<svg width="224" height="224" viewBox="0 0 224 224" fill="none" xmlns="http://www.w3.org/2000/svg">
<path d="M111.771 111.902C80.9065 142.767 55.8857 167.788 55.8857 167.788C25.0209 136.923 25.0209 86.8813 55.8857 56.0165C55.8857 56.0165 80.9065 81.0374 111.771 111.902Z" fill="#29CE00"/>
<path d="M111.886 111.771C81.0209 80.9065 56 55.8857 56 55.8857C86.8648 25.0209 136.907 25.0209 167.771 55.8857C167.771 55.8857 142.75 80.9065 111.886 111.771Z" fill="#161616"/>
<path d="M112.229 111.902C143.093 81.0374 168.114 56.0165 168.114 56.0165C198.979 86.8813 198.979 136.923 168.114 167.788C168.114 167.788 143.093 142.767 112.229 111.902Z" fill="#E90000"/>
<path d="M112 112.131C142.865 142.996 167.886 168.017 167.886 168.017C137.021 198.881 86.9791 198.881 56.1143 168.017C56.1143 168.017 81.1352 142.996 112 112.131Z" fill="#D4D4D9"/>
</svg>
