<svg width="33" height="33" viewBox="0 0 33 33" fill="none" xmlns="http://www.w3.org/2000/svg">
<mask id="mask0_7_15" style="mask-type:alpha" maskUnits="userSpaceOnUse" x="0" y="0" width="33" height="33">
<rect width="33" height="33" fill="#D9D9D9"/>
</mask>
<g mask="url(#mask0_7_15)">
<path d="M19.25 28.4969V25.6781C21.3125 25.0823 22.974 23.9365 24.2344 22.2406C25.4948 20.5448 26.125 18.6198 26.125 16.4656C26.125 14.3115 25.4948 12.3865 24.2344 10.6906C22.974 8.9948 21.3125 7.84897 19.25 7.25314V4.43439C22.0917 5.07605 24.4063 6.51407 26.1938 8.74845C27.9813 10.9828 28.875 13.5552 28.875 16.4656C28.875 19.3761 27.9813 21.9485 26.1938 24.1828C24.4063 26.4172 22.0917 27.8552 19.25 28.4969ZM4.125 20.625V12.375H9.625L16.5 5.50001V27.5L9.625 20.625H4.125ZM19.25 22V10.9313C20.3271 11.4354 21.1693 12.1917 21.7766 13.2C22.3839 14.2083 22.6875 15.3083 22.6875 16.5C22.6875 17.6688 22.3839 18.7516 21.7766 19.7484C21.1693 20.7453 20.3271 21.4958 19.25 22ZM13.75 12.1688L10.7937 15.125H6.875V17.875H10.7937L13.75 20.8313V12.1688Z" fill="white"/>
</g>
</svg>
