<svg width="33" height="33" viewBox="0 0 33 33" fill="none" xmlns="http://www.w3.org/2000/svg">
<mask id="mask0_49_7" style="mask-type:alpha" maskUnits="userSpaceOnUse" x="0" y="0" width="33" height="33">
<rect width="33" height="33" fill="#D9D9D9"/>
</mask>
<g mask="url(#mask0_49_7)">
<path d="M27.225 31.075L23.0656 26.9156C22.4927 27.2823 21.8854 27.5974 21.2438 27.8609C20.6021 28.1245 19.9375 28.3365 19.25 28.4969V25.6781C19.5708 25.5635 19.8859 25.449 20.1953 25.3344C20.5047 25.2198 20.7969 25.0823 21.0719 24.9219L16.5 20.35V27.5L9.625 20.625H4.125V12.375H8.525L1.925 5.77501L3.85 3.85001L29.15 29.15L27.225 31.075ZM26.95 23.1L24.9563 21.1063C25.3458 20.3958 25.638 19.651 25.8328 18.8719C26.0276 18.0927 26.125 17.2906 26.125 16.4656C26.125 14.3115 25.4948 12.3865 24.2344 10.6906C22.974 8.9948 21.3125 7.84896 19.25 7.25313V4.43438C22.0917 5.07605 24.4063 6.51407 26.1938 8.74844C27.9813 10.9828 28.875 13.5552 28.875 16.4656C28.875 17.6802 28.7089 18.849 28.3766 19.9719C28.0443 21.0948 27.5688 22.1375 26.95 23.1ZM22.3438 18.4938L19.25 15.4V10.9313C20.3271 11.4354 21.1693 12.1917 21.7766 13.2C22.3839 14.2083 22.6875 15.3083 22.6875 16.5C22.6875 16.8438 22.6589 17.1818 22.6016 17.5141C22.5443 17.8464 22.4583 18.1729 22.3438 18.4938ZM16.5 12.65L12.925 9.07501L16.5 5.50001V12.65ZM13.75 20.8313V17.6L11.275 15.125H6.875V17.875H10.7938L13.75 20.8313Z" fill="white"/>
</g>
</svg>
